<!-- Generated by IcoMoon.io -->
<svg version="1.1" xmlns="http://www.w3.org/2000/svg" width="70" height="32" viewBox="0 0 70 32">
<title>cyb</title>
<path fill="#79baff" d="M0 6.4h6.4v19.2h-6.4v-19.2zM6.4 25.6h6.4v6.4h-6.4v-6.4zM6.4 0h6.4v6.4h-6.4v-6.4z"></path>
<path fill="#3798ff" d="M0 25.6h6.4v6.4c-3.535 0-6.4-2.865-6.4-6.4zM12.8 25.6h6.4c0 3.535-2.865 6.4-6.4 6.4v-6.4zM6.4 0v6.4h-6.4c0-3.535 2.865-6.4 6.4-6.4zM19.2 6.4h-6.4v-6.4c3.535 0 6.4 2.865 6.4 6.4z"></path>
<path fill="#79baff" d="M32 12.8h6.4v19.2h-6.4v-19.2zM25.6 6.4h6.4v6.4h-6.4v-6.4zM38.4 6.4h6.4v6.4h-6.4v-6.4z"></path>
<path fill="#3798ff" d="M38.4 19.2v-6.4h6.4c0 3.535-2.865 6.4-6.4 6.4zM44.8 6.4h-6.4c0-3.535 2.865-6.4 6.4-6.4v6.4zM25.6 12.8h6.4v6.4c-3.535 0-6.4-2.865-6.4-6.4zM25.6 6.4v-6.4c3.535 0 6.4 2.865 6.4 6.4h-6.4z"></path>
<path fill="#3798ff" d="M64 12.8h6.4c0 1.166-0.312 2.259-0.856 3.2 0.545 0.941 0.856 2.034 0.856 3.2h-6.4v-6.4zM57.6 0v6.4h-6.4c0-3.535 2.865-6.4 6.4-6.4zM64 6.4v-6.4c3.535 0 6.4 2.865 6.4 6.4h-6.4zM51.2 25.6h6.4v6.4c-3.535 0-6.4-2.865-6.4-6.4zM64 25.6h6.4c0 3.535-2.865 6.4-6.4 6.4v-6.4z"></path>
<path fill="#79baff" d="M51.2 12.8v-6.4h6.4v6.4h6.4v6.4h-6.4v6.4h-6.4v-12.8zM64 6.4h6.4v6.4h-6.4v-6.4zM64 19.2h6.4v6.4h-6.4v-6.4zM57.6 25.6h6.4v6.4h-6.4v-6.4zM57.6 0h6.4v6.4h-6.4v-6.4z"></path>
</svg>
